<svg width="1200" height="630" viewBox="0 0 1200 630" fill="none" xmlns="http://www.w3.org/2000/svg">
  <rect width="1200" height="630" fill="#081C15" />
  <rect x="0" y="0" width="1200" height="630" fill="url(#paint0_linear_1_2)" />
  <circle cx="958" cy="148" r="214" fill="#F5D042" fill-opacity="0.08" />
  <circle cx="178" cy="518" r="230" fill="#1B9C5A" fill-opacity="0.14" />
  <path d="M116 170L535 490H424L34 190L116 170Z" fill="#F5D042" fill-opacity="0.92" />
  <path d="M186 118L603 438H510L104 144L186 118Z" fill="#1B9C5A" />
  <rect x="706" y="146" width="274" height="274" rx="36" fill="#0F5132" stroke="#F5D042" stroke-width="8" />
  <path d="M758 229H928L843 341L758 229Z" fill="#F5D042" />
  <path d="M814 188H872V377H814V188Z" fill="#1B9C5A" />
  <path
    d="M843 186C804.34 186 773 217.34 773 256C773 302.667 843 379 843 379C843 379 913 302.667 913 256C913 217.34 881.66 186 843 186Z"
    fill="#FAFAF7"
  />
  <circle cx="843" cy="256" r="30" fill="#0F5132" />
  <text x="104" y="230" fill="#FAFAF7" font-family="Arial, Helvetica, sans-serif" font-size="82" font-weight="700">
    Meu Hexa
  </text>
  <text x="104" y="318" fill="#D8F3DC" font-family="Arial, Helvetica, sans-serif" font-size="36" font-weight="400">
    Copa do Mundo 2026 para torcedores brasileiros
  </text>
  <text x="104" y="396" fill="#FAFAF7" font-family="Arial, Helvetica, sans-serif" font-size="32" font-weight="600">
    Convocacao
  </text>
  <text x="308" y="396" fill="#FAFAF7" font-family="Arial, Helvetica, sans-serif" font-size="32" font-weight="600">
    Simulador
  </text>
  <text x="534" y="396" fill="#FAFAF7" font-family="Arial, Helvetica, sans-serif" font-size="32" font-weight="600">
    Tier List
  </text>
  <text x="104" y="500" fill="#B7E4C7" font-family="Arial, Helvetica, sans-serif" font-size="28" font-weight="400">
    Monte seu time, simule a Copa e compartilhe sua versao do hexa.
  </text>
  <defs>
    <linearGradient id="paint0_linear_1_2" x1="0" y1="0" x2="1200" y2="630" gradientUnits="userSpaceOnUse">
      <stop stop-color="#081C15" />
      <stop offset="1" stop-color="#1B4332" />
    </linearGradient>
  </defs>
</svg>
